Coordinates
version=1
nRows=10
nColumns=28
inDegrees=yes

Units are S.I. units (second, meters, Newtons, ...)
Angles are in degrees.

endheader
time	pelvis_tilt	pelvis_list	pelvis_rotation	pelvis_tx	pelvis_ty	pelvis_tz	hip_flexion_r	hip_adduction_r	hip_rotation_r	knee_angle_r	ankle_angle_r	subtalar_angle_r	mtp_angle_r	hip_flexion_l	hip_adduction_l	hip_rotation_l	knee_angle_l	socket_flexion	socket_adduction	socket_rotation	socket_tx	socket_ty	socket_tz	foot_flex	lumbar_extension	lumbar_bending	lumbar_rotation
      0.53333333	     -1.72938572	     -5.56285456	      7.26727394	     -0.01765880	      0.95952319	      0.23205214	     26.18247027	      4.34977080	     -4.25919053	    -10.24409995	      6.01868258	    -13.27564019	     -2.24759401	    -18.78387188	     -8.54031625	     10.23166214	     -8.35610634	      0.00000000	      0.00000000	      0.00000000	      0.00000000	     -0.00187809	      0.00000000	      9.59443810	     -6.90556528	      6.63504093	    -18.79666754
      0.53750000	     -1.98481565	     -5.42598824	      7.02009741	     -0.01771702	      0.95902182	      0.23246930	     26.75316159	      4.20035225	     -4.50027566	    -10.80649041	      6.26681255	    -12.70152768	     -1.64571639	    -18.56566660	     -8.29720868	     10.00747242	     -8.37173790	      0.00000000	      0.00000000	      0.00000000	      0.00000000	     -0.00186943	      0.00000000	      9.59899957	     -6.66474983	      6.39415098	    -18.47638536
      0.54166667	     -1.87746779	     -5.53690845	      7.11071592	     -0.01131134	      0.95775971	      0.23231123	     26.97615311	      4.37864820	     -4.38866232	    -11.76575886	      5.85499791	    -12.62737042	     -1.54422608	    -18.82409672	     -8.44212323	     10.08758319	     -8.80526467	      0.00000000	      0.00000000	      0.00000000	      0.00000000	     -0.00180711	      0.00000000	      9.66540579	     -6.75393123	      6.61955262	    -18.56573978
      0.54583333	     -1.98799547	     -5.45571132	      7.10328431	     -0.00471768	      0.95606092	      0.23227954	     27.76815552	      4.18152996	     -5.15179705	    -13.37774234	      4.78304881	    -12.20561529	      3.82889521	    -18.88775042	     -8.33359969	      9.99638914	     -9.24907470	      0.00000000	      0.00000000	      0.00000000	      0.00000000	     -0.00164626	      0.00000000	      9.71684325	     -6.59736736	      6.58588889	    -18.76666595
      0.55000000	     -1.88599853	     -5.56532131	      7.18246875	      0.00176244	      0.95487493	      0.23214319	     27.96447661	      4.36557262	     -4.94860060	    -14.33853005	      4.39136655	    -12.13589616	      3.82376148	    -19.09885886	     -8.46995973	     10.05906341	     -9.74521890	      0.00000000	      0.00000000	      0.00000000	      0.00000000	     -0.00157457	      0.00000000	      9.69616498	     -6.68732791	      6.80606433	    -18.80159004
      0.55416667	     -1.78224013	     -5.65901566	      7.19234298	      0.00820810	      0.95366345	      0.23209875	     28.24441597	      4.53431515	     -4.82823512	    -15.45623431	      3.90742449	    -12.07390866	      3.82713916	    -19.30554550	     -8.55847189	     10.03037803	    -10.29085770	      0.00000000	      0.00000000	      0.00000000	      0.00000000	     -0.00152579	      0.00000000	      9.65777104	     -6.79730075	      7.00638491	    -18.84720413
      0.55833333	     -2.26898861	     -5.36363175	      6.79822565	      0.01462343	      0.95150058	      0.23284388	     29.51839718	      4.32349718	     -4.69991510	    -17.32713287	      3.28383444	    -11.90595504	      4.70986104	    -18.91970044	     -8.06334636	      9.68535772	    -10.94547756	      0.00000000	      0.00000000	      0.00000000	      0.00000000	     -0.00121836	      0.00000000	      9.65118868	     -6.28159072	      6.60419069	    -18.59793572
      0.56250000	     -2.18712034	     -5.43400543	      6.75353636	      0.02123390	      0.95032184	      0.23286518	     29.83769394	      4.45561064	     -4.66355880	    -18.52167202	      2.71882478	    -11.83544483	      4.85603434	    -19.08323168	     -8.10231954	      9.57830768	    -11.55015508	      0.00000000	      0.00000000	      0.00000000	      0.00000000	     -0.00110184	      0.00000000	      9.55110942	     -6.34265052	      6.78517095	    -18.65469351
      0.56666667	     -2.26229513	     -5.38308425	      6.63711558	      0.02775074	      0.94896824	      0.23309824	     30.37320562	      4.48376471	     -4.49742284	    -19.83179130	      2.14987770	    -11.73883231	      5.25583734	    -19.02232338	     -7.97461551	      9.45742282	    -12.26809189	      0.00000000	      0.00000000	      0.00000000	      0.00000000	     -0.00089546	      0.00000000	      9.41312250	     -6.25815288	      6.76406460	    -18.63238477
      0.57083333	     -2.17835776	     -5.49062483	      6.66819127	      0.03431145	      0.94800940	      0.23306308	     30.57449471	      4.66464886	     -4.29748063	    -20.83719689	      1.79867947	    -11.65596878	      5.35126321	    -19.05065523	     -8.06450280	      9.42134699	    -13.05150734	      0.00000000	      0.00000000	      0.00000000	      0.00000000	     -0.00078983	      0.00000000	      9.22672841	     -6.32535491	      6.97199746	    -18.63449895
